<svg xmlns="http://www.w3.org/2000/svg" width="102.082" height="89.987" viewBox="0 0 211 186">
  <metadata><?xpacket begin="﻿" id="W5M0MpCehiHzreSzNTczkc9d"?>
<x:xmpmeta xmlns:x="adobe:ns:meta/" x:xmptk="Adobe XMP Core 5.6-c142 79.160924, 2017/07/13-01:06:39        ">
   <rdf:RDF xmlns:rdf="http://www.w3.org/1999/02/22-rdf-syntax-ns#">
      <rdf:Description rdf:about=""/>
   </rdf:RDF>
</x:xmpmeta>
                                                                                                    
                                                                                                    
                                                                                                    
                                                                                                    
                                                                                                    
                                                                                                    
                                                                                                    
                                                                                                    
                                                                                                    
                                                                                                    
                                                                                                    
                                                                                                    
                                                                                                    
                                                                                                    
                                                                                                    
                                                                                                    
                                                                                                    
                                                                                                    
                                                                                                    
                                                                                                    
                           
<?xpacket end="w"?></metadata>
<defs>
    <style>
      .cls-1 {
        fill: #ce2029;
        fill-rule: evenodd;
      }
    </style>
  </defs>
  <path id="A" class="cls-1" d="M196.487,167.259c-5.225-5.7-9.687-19.4-13.487-44.259-1.744-11.4-3.512-32.682-7.65-67.841C169.775,7.793,143.869,9.7,135,4c-7.891-3.519-2.88-.574-8.841-3.551-5.51-2.751,13.312,12.641,23.066,26.21,2.808,3.906,2.612,11.638,3.562,21.138a75.515,75.515,0,0,0-19.95,5.938q-4.513,17.1-20.662,47.263A125.085,125.085,0,0,0,92.7,99.572q-34.2,0-59.85,12.587Q0.075,128.314.075,158.947q0,11.638,7.244,19.237t19.119,7.6q23.986,0,52.963-28.737a248.246,248.246,0,0,0,38.712-49.638q11.874,1.9,11.875,9.5,0,7.125-4.987,9.263A102.455,102.455,0,0,1,142.812,137.1q3.563-6.887,13.063-17.338a44.2,44.2,0,0,1-10.925-8.312q-3.562-4.037-5.938-4.988-4.275-1.9-17.812-4.037,7.6-14.25,14.962-28.738,12.112-22.321,16.863-23.037,2.85,21.854,5.462,43.7,5.221,38.475,11.163,60.8,8.31,30.638,17.812,30.637,4.749,0,22.325-26.362C214.347,144.39,207.557,158.112,196.487,167.259Zm-120.6-13.537q-26.363,28.026-48.45,28.025-10.214,0-16.15-6.413T5.35,158.947q0-27.788,29.688-42.75,23.746-12.113,54.625-12.113,13.538,0,20.9,1.663a235.465,235.465,0,0,1-34.674,47.975h0Z"/>
</svg>
