<?xml version="1.0" encoding="UTF-8"?>
<svg width="205px" height="36px" viewBox="0 0 205 36" version="1.1" xmlns="http://www.w3.org/2000/svg" xmlns:xlink="http://www.w3.org/1999/xlink">
    <defs></defs>
    <g id="Footer_new" stroke="none" stroke-width="1" fill="none" fill-rule="evenodd">
        <g id="footer_with_new_social_hovers" transform="translate(-976.000000, -552.000000)">
            <g id="footer-copy" transform="translate(-1.000000, 0.000000)">
                <g id="footer">
                    <g id="Payment" transform="translate(977.000000, 522.000000)">
                        <g id="mc_hrz_pos" transform="translate(0.000000, 20.000000)">
                            <g>
                                <rect id="Rectangle-path" x="31" y="0" width="237" height="55"></rect>
                                <path d="M89.8210752,33.5896477 L89.8210752,26.1747277 C89.8210752,23.3768312 88.0307174,21.4934415 85.1492827,21.4687251 C83.4779427,21.3610193 81.8800707,22.1677678 80.9783935,23.5745624 C80.1565983,22.2092386 78.6514348,21.4012609 77.0554764,21.4687251 C75.667427,21.401906 74.3472692,22.0711128 73.5838683,23.2285328 L73.5838683,21.7455488 L71,21.7455488 L71,33.5896477 L73.6086655,33.5896477 L73.6086655,27.0299151 C73.6086655,24.9735106 74.7493367,23.885989 76.5148974,23.885989 C78.2804581,23.885989 79.0987657,24.998227 79.0987657,27.0051987 L79.0987657,33.5896477 L81.6925529,33.5896477 L81.6925529,27.0299151 C81.6925529,24.9735106 82.8828185,23.885989 84.5987848,23.885989 C86.3147511,23.885989 87.2074503,24.998227 87.2074503,27.0051987 L87.2074503,33.5896477 L89.8210752,33.5896477 Z M128.420398,21.7554354 L124.199914,21.7554354 L124.199914,18.1666141 L121.591249,18.1666141 L121.591249,21.7554354 L119.180961,21.7554354 L119.180961,24.1084366 L121.591249,24.1084366 L121.591249,29.5015551 C121.591249,32.2500188 122.657528,33.8862445 125.712543,33.8862445 C126.853584,33.8899187 127.972561,33.572966 128.941139,32.9717377 L128.197223,30.7670348 C127.504,31.1786065 126.717376,31.408212 125.910921,31.4343776 C124.621467,31.4343776 124.194955,30.6434528 124.194955,29.4570656 L124.194955,24.1084366 L128.415438,24.1084366 L128.420398,21.7554354 Z M150.45519,21.4588386 C149.171787,21.4215498 147.970849,22.0874067 147.325783,23.1939298 L147.325783,21.7554354 L144.766712,21.7554354 L144.766712,33.5896477 L147.350581,33.5896477 L147.350581,26.9557659 C147.350581,24.9784539 148.193685,23.9107054 149.884854,23.9107054 C150.438097,23.9027284 150.987492,24.0035146 151.501632,24.2073022 L152.295142,21.7801518 C151.704593,21.5696356 151.082368,21.4609756 150.45519,21.4588386 Z M117.142631,22.6946586 C115.679714,21.8283651 113.997831,21.3993981 112.297258,21.4588386 C109.291837,21.4588386 107.337818,22.897333 107.337818,25.245391 C107.337818,27.1782135 108.776055,28.3646007 111.434315,28.7353467 L112.649378,28.9083615 C114.062819,29.1060927 114.737302,29.4768387 114.737302,30.1441815 C114.737302,31.0586883 113.795009,31.582676 112.029448,31.582676 C110.60505,31.6277766 109.207078,31.1923337 108.061896,30.346856 L106.886509,32.3488844 C108.391196,33.3975238 110.194131,33.9364686 112.029448,33.8862445 C115.456421,33.8862445 117.445157,32.2747352 117.445157,30.0255428 C117.445157,27.9444219 115.877974,26.8569003 113.299065,26.4861543 L112.084002,26.3131395 C110.968128,26.1648411 110.070469,25.9423935 110.070469,25.1514687 C110.070469,24.2863947 110.913574,23.7673503 112.331974,23.7673503 C113.631549,23.7864942 114.904819,24.1352473 116.031716,24.7807227 L117.142631,22.6946586 Z M186.336739,21.4588386 C185.053337,21.4215498 183.852399,22.0874067 183.207333,23.1939298 L183.207333,21.7554354 L180.648262,21.7554354 L180.648262,33.5896477 L183.23213,33.5896477 L183.23213,26.9557659 C183.23213,24.9784539 184.075235,23.9107054 185.766404,23.9107054 C186.319646,23.9027284 186.869041,24.0035146 187.383181,24.2073022 L188.176692,21.7801518 C187.586142,21.5696356 186.963917,21.4609756 186.336739,21.4588386 Z M153.063856,27.6725415 C153.063856,31.2613628 155.573332,33.8862445 159.397061,33.8862445 C160.947561,33.9627056 162.470693,33.4584125 163.667139,32.4724664 L162.427279,30.3913455 C161.534089,31.0693347 160.445309,31.4420583 159.322669,31.4541507 C157.259542,31.4541507 155.746913,29.941507 155.746913,27.6675982 C155.746913,25.3936894 157.264501,23.9057622 159.322669,23.8810458 C160.445309,23.8931381 161.534089,24.2658618 162.427279,24.943851 L163.667139,22.8627301 C162.470693,21.876784 160.947561,21.3724909 159.397061,21.448952 C155.573332,21.448952 153.063856,24.0738337 153.063856,27.662655 L153.063856,27.6725415 Z M177.256005,27.6725415 L177.256005,21.7406055 L174.672136,21.7406055 L174.672136,23.1791 C173.778242,22.0293714 172.38081,21.3826778 170.922799,21.4440087 C167.595015,21.4440087 164.971471,24.044174 164.971471,27.6577117 C164.971471,31.2712493 167.580137,33.8714146 170.922799,33.8714146 C172.38081,33.9327455 173.778242,33.2860519 174.672136,32.1363233 L174.672136,33.5698745 L177.256005,33.5698745 L177.256005,27.6725415 Z M167.64461,27.6725415 C167.64461,25.5914206 169.008456,23.885989 171.245163,23.885989 C173.382682,23.885989 174.820919,25.5222147 174.820919,27.6725415 C174.820919,29.8228683 173.382682,31.459094 171.245163,31.459094 C169.008456,31.459094 167.64461,29.7487191 167.64461,27.6725415 Z M136.469569,21.4588386 C132.997961,21.4588386 130.557916,23.9848546 130.557916,27.6725415 C130.557916,31.4343776 133.09219,33.8862445 136.643149,33.8862445 C138.416189,33.9481631 140.149975,33.3568658 141.51332,32.2253024 L140.248662,30.3171963 C139.26229,31.1038216 138.040209,31.5388566 136.777054,31.5530163 C135.110682,31.5530163 133.598053,30.7868079 133.226095,28.6562542 L142.04398,28.6562542 C142.068777,28.334941 142.093574,28.0136278 142.093574,27.6675982 C142.093574,23.9799114 139.782475,21.4538953 136.454691,21.4538953 L136.469569,21.4588386 Z M136.419975,23.762407 C138.086346,23.762407 139.152626,24.8004958 139.425395,26.6344527 L133.27073,26.6344527 C133.543499,24.9240778 134.584982,23.762407 136.424934,23.762407 L136.419975,23.762407 Z M201.21506,27.6725415 L201.21506,17 L198.631191,17 L198.631191,23.1889866 C197.737297,22.039258 196.339865,21.3925644 194.881855,21.4538953 C191.55407,21.4538953 188.930527,24.0540606 188.930527,27.6675982 C188.930527,31.2811359 191.539192,33.8813012 194.881855,33.8813012 C196.339865,33.9426321 197.737297,33.2959385 198.631191,32.1462099 L198.631191,33.5797611 L201.21506,33.5797611 L201.21506,27.6725415 Z M204.235359,32.4971828 C204.337543,32.4967832 204.438755,32.5169597 204.532925,32.5565021 C204.623556,32.5950609 204.70602,32.6504168 204.775938,32.7196304 C204.845233,32.7875467 204.900793,32.8680987 204.939599,32.9569078 C205.020134,33.1430585 205.020134,33.3540642 204.939599,33.5402149 C204.900686,33.6289645 204.845138,33.7094973 204.775938,33.7774923 C204.705794,33.8464319 204.623386,33.9017508 204.532925,33.9406205 C204.438879,33.9805625 204.337583,34.0007557 204.235359,33.9999399 C203.926215,34.0037867 203.644842,33.8226589 203.521199,33.5402149 C203.441249,33.3539444 203.441249,33.1431783 203.521199,32.9569078 C203.598762,32.7753996 203.744834,32.6315794 203.927873,32.5565021 C204.028353,32.5148371 204.13648,32.4946294 204.245278,32.4971828 L204.235359,32.4971828 Z M204.235359,33.8318684 C204.313687,33.8330945 204.391404,33.8179387 204.463493,33.7873789 C204.531822,33.7578888 204.594048,33.7159813 204.646992,33.6637969 C204.876507,33.4342366 204.876507,33.0628861 204.646992,32.8333258 C204.594275,32.7808664 204.531993,32.7389215 204.463493,32.7097438 C204.391319,32.6794606 204.313661,32.6643163 204.235359,32.6652543 C204.15544,32.6641989 204.076139,32.6793348 204.002265,32.7097438 C203.8227,32.7861639 203.692676,32.9461576 203.654957,33.1371038 C203.617239,33.32805 203.676708,33.5252318 203.813806,33.6637969 C203.868069,33.7166859 203.932058,33.7586463 204.002265,33.7873789 C204.079169,33.8192782 204.16202,33.8344461 204.245278,33.8318684 L204.235359,33.8318684 Z M204.279994,32.8926452 C204.354257,32.8874588 204.427986,32.9084556 204.48829,32.9519645 C204.537802,32.991378 204.565445,33.0519952 204.562682,33.1150928 C204.564493,33.1691927 204.542802,33.2214417 204.503169,33.2584479 C204.457696,33.2987672 204.400195,33.3230821 204.339507,33.3276538 L204.567641,33.5896477 L204.389101,33.5896477 L204.175845,33.3276538 L204.106413,33.3276538 L204.106413,33.5896477 L203.95763,33.5896477 L203.95763,32.8975885 L204.279994,32.8926452 Z M204.106413,33.0211705 L204.106413,33.2090151 L204.279994,33.2090151 C204.310765,33.2179405 204.343451,33.2179405 204.374223,33.2090151 C204.397099,33.1935481 204.41025,33.1673302 204.408939,33.1398092 C204.41025,33.1122882 204.397099,33.0860703 204.374223,33.0706033 C204.343451,33.0616779 204.310765,33.0616779 204.279994,33.0706033 L204.106413,33.0211705 Z M191.613584,27.6725415 C191.613584,25.5914206 192.97743,23.885989 195.214137,23.885989 C197.351656,23.885989 198.789893,25.5222147 198.789893,27.6725415 C198.789893,29.8228683 197.351656,31.459094 195.214137,31.459094 C192.97743,31.459094 191.613584,29.7487191 191.613584,27.6725415 Z M104.377032,27.6725415 L104.377032,21.7406055 L101.793164,21.7406055 L101.793164,23.1791 C100.899234,22.0393035 99.5089237,21.3988633 98.0587053,21.4588386 C94.730921,21.4588386 92.1073771,24.0590038 92.1073771,27.6725415 C92.1073771,31.2860792 94.7160426,33.8862445 98.0587053,33.8862445 C99.5167155,33.9475754 100.914148,33.3008818 101.808042,32.1511532 L101.808042,33.5847044 L104.39191,33.5847044 L104.377032,27.6725415 Z M94.765637,27.6725415 C94.765637,25.5914206 96.1294831,23.885989 98.3661906,23.885989 C100.503709,23.885989 101.941947,25.5222147 101.941947,27.6725415 C101.941947,29.8228683 100.503709,31.459094 98.3661906,31.459094 C96.1294831,31.459094 94.765637,29.7536624 94.765637,27.6725415 Z" id="Shape" fill="#231F20" fill-rule="nonzero"></path>
                                <g id="_Group_" transform="translate(0.000000, 10.000000)" fill-rule="nonzero">
                                    <rect id="Rectangle-path" fill="#FF5F00" x="21.5871341" y="3.55731225" width="15.6872606" height="28.1205534"></rect>
                                    <path d="M22.158732,17.8805012 C22.154398,12.3939887 24.679455,7.21017866 29.0063458,3.82270821 C21.6556392,-1.93947096 11.0997299,-1.10015974 4.75702709,5.75079651 C-1.5856757,12.6017528 -1.5856757,23.164217 4.75702709,30.0151733 C11.0997299,36.8661295 21.6556392,37.7054407 29.0063458,31.9432616 C24.6780781,28.5547154 22.1528668,23.3687568 22.158732,17.8805012 Z" id="_Path_" fill="#EB001B"></path>
                                    <path d="M57.7918274,17.8874045 C57.7916673,24.7341857 53.8722139,30.9798545 47.6980738,33.9718513 C41.5239338,36.9638482 34.1790588,36.1768886 28.7828455,31.9451975 C33.1078482,28.5548512 35.6330953,23.3717303 35.6330953,17.8849208 C35.6330953,12.3981113 33.1078482,7.21499046 28.7828455,3.82464412 C34.1797651,-0.407601275 41.5257823,-1.19416864 47.7003139,1.79907529 C53.8748456,4.79231923 57.7935745,11.0397271 57.7918274,17.8874045 Z" id="Shape" fill="#F79E1B"></path>
                                    <path d="M56.7150115,29.1539365 L56.7150115,28.5777161 L56.9490754,28.5777161 L56.9490754,28.4634654 L56.3664057,28.4634654 L56.3664057,28.5826835 L56.6004696,28.5826835 L56.6004696,29.158904 L56.7150115,29.1539365 Z M57.8654106,29.1539365 L57.8654106,28.458498 L57.7110281,28.458498 L57.5018646,28.9552398 L57.2927011,28.458498 L57.108438,28.458498 L57.108438,29.1539365 L57.2130198,29.1539365 L57.2130198,28.6323577 L57.407243,29.0843927 L57.5417052,29.0843927 L57.7359285,28.6323577 L57.7359285,29.158904 L57.8654106,29.1539365 Z" id="Shape" fill="#F79E1B"></path>
                                </g>
                            </g>
                        </g>
                    </g>
                </g>
            </g>
        </g>
    </g>
</svg>