<?xml version="1.0" encoding="UTF-8"?>
<svg width="84px" height="28px" viewBox="0 0 84 28" version="1.1" xmlns="http://www.w3.org/2000/svg" xmlns:xlink="http://www.w3.org/1999/xlink">
    <defs></defs>
    <g id="Footer_new" stroke="none" stroke-width="1" fill="none" fill-rule="evenodd">
        <g id="footer_with_new_social_hovers" transform="translate(-1217.000000, -554.000000)">
            <g id="footer-copy" transform="translate(-1.000000, 0.000000)">
                <g id="footer">
                    <g id="Payment" transform="translate(977.000000, 522.000000)">
                        <g id="Visa_Inc._logo" transform="translate(241.000000, 32.000000)">
                            <g>
                                <polygon id="polygon9" fill="#00579F" fill-rule="nonzero" points="36.1522675 27 30 27 33.8480689 0 40 0"></polygon>
                                <path d="M62,1.15395565 C60.6191665,0.605529702 58.4290506,0 55.7209786,0 C48.8076236,0 43.9392956,3.69066521 43.9094356,8.96720504 C43.8520125,12.8602245 47.395016,15.0225021 50.0448994,16.3205584 C52.7533542,17.6469751 53.6740375,18.5127293 53.6740375,19.6950452 C53.6464744,21.5108678 51.4854528,22.3478785 49.469903,22.3478785 C46.6749307,22.3478785 45.177337,21.9163427 42.9014693,20.9061046 L41.9796376,20.4730359 L41,26.5574596 C42.641917,27.3063236 45.6669644,27.9708733 48.8076236,28 C56.1531829,28 60.9353763,24.3664385 60.9920337,18.7434437 C61.0199796,15.657925 59.1491359,13.2936764 55.1157394,11.3617301 C52.6672196,10.1215439 51.1677118,9.28529975 51.1677118,8.01637011 C51.1964234,6.8627977 52.4359961,5.68124829 55.1999599,5.68124829 C57.4758276,5.62337805 59.1479875,6.1710375 60.4147404,6.71908021 L61.0479255,7.00689844 L62,1.15395565 Z" id="path11" fill="#00579F" fill-rule="nonzero"></path>
                                <path d="M70.3481004,17.435106 C70.8989165,15.8839699 73.0184245,9.88061875 73.0184245,9.88061875 C72.9906277,9.93826619 73.5681434,8.30084979 73.8984136,7.2956464 L74.3658392,9.62215969 C74.3658392,9.62215969 75.6324235,16.0851632 75.9074658,17.435106 C74.8621588,17.435106 71.6691812,17.435106 70.3481004,17.435106 Z M78.6041238,0 L73.4306222,0 C71.8352306,0 70.6231427,0.487903511 69.9348055,2.24023302 L60,27 L67.0179674,27 C67.0179674,27 68.1733644,23.6675198 68.4217071,22.94979 C69.1916061,22.94979 76.0186531,22.94979 77.009098,22.94979 C77.2011155,23.8977278 77.8071595,27 77.8071595,27 L84,27 L78.6041238,5.42529414e-15 Z" id="path13" fill="#00579F" fill-rule="nonzero"></path>
                                <path d="M23.1031387,0 L16.7155972,18.4309615 L16.0176007,14.6929468 C14.8366777,10.3797648 11.1330521,5.69358377 7,3.3634871 L12.8507583,27 L19.7479763,27 L30,0 L23.1031387,1.35774419e-15 Z" id="path15" fill="#00579F" fill-rule="nonzero"></path>
                                <path d="M11.3814533,0 L0.115258131,0 L0,0.557491742 C8.78833679,2.84714817 14.608681,8.36627741 17,15 L14.5508604,2.31930609 C14.1476484,0.557101615 12.9085278,0.05812895 11.3814533,0 Z" id="path17" fill="#FAA61A" fill-rule="nonzero"></path>
                            </g>
                        </g>
                    </g>
                </g>
            </g>
        </g>
    </g>
</svg>